# This file uses centimeters as units for non-parametric coordinates.

mtllib Fish3.mtl
g default
v 0.008484 0.131804 0.386747
v 0.008484 -0.293296 -0.143594
v 0.008484 0.028208 -0.349124
v -0.148627 -0.132034 0.369159
v 0.075889 -0.126201 -0.249307
v 0.008484 -0.125497 0.853507
v 0.008484 0.149643 0.045129
v 0.188085 -0.159105 0.155334
v -0.062072 -0.131704 -0.224483
v 0.139020 -0.063983 0.439790
v -0.122064 -0.002986 0.387698
v 0.008484 -0.259247 0.343866
v 0.008484 0.020164 0.763279
v 0.099512 -0.141269 0.730776
v -0.083308 -0.143069 0.736339
v 0.067945 0.124844 0.060230
v -0.051517 0.124484 0.059647
v 0.008484 -0.184558 -0.396764
v 0.008484 -0.139117 -0.384650
v 0.157413 -0.026461 0.104494
v -0.135535 -0.030953 0.083618
v 0.071293 -0.042253 -0.302322
v -0.045033 -0.014898 -0.326406
v 0.092291 0.015783 0.600619
v -0.067439 0.022217 0.608899
v 0.046687 0.089973 -0.153476
v -0.030180 0.085093 -0.163355
v 0.130959 -0.146057 0.466024
v 0.084611 -0.245006 0.085842
v 0.094590 -0.196217 0.447782
v -0.067342 -0.246544 0.095540
v -0.057298 -0.196437 0.485447
v 0.135814 -0.154831 0.089889
v -0.121636 -0.145770 0.076539
v 0.132650 0.056665 0.069830
v -0.114998 0.057677 0.073611
v -0.110858 -0.143837 0.470116
v 0.008484 0.151491 -0.346735
v -0.170144 -0.158419 0.150648
v 0.008484 -0.245293 -0.640820
v 0.202731 -0.237503 0.283799
v 0.069851 0.104167 0.338986
v -0.056274 0.103223 0.322779
v 0.085383 -0.181849 -0.111253
v -0.072958 -0.184026 -0.091483
v 0.163301 -0.127417 0.369653
v -0.185738 -0.239001 0.281122
v 0.031590 -0.104493 -0.408522
v -0.012878 -0.109670 -0.409963
v 0.144308 -0.154195 0.305127
v -0.124086 -0.152120 0.301599
v 0.008484 -0.026006 -0.729455
v 0.108585 -0.222052 0.288223
v -0.088120 -0.221182 0.288553
v 0.008484 0.035751 -0.448036
v 0.008484 0.094922 -0.725988
v 0.134387 -0.077550 -0.044829
v -0.105622 -0.065645 -0.070460
v 0.057241 0.090441 -0.642137
v -0.038459 0.090201 -0.632082
v 0.150484 -0.057155 0.308674
v 0.008484 -0.174053 -0.241891
v 0.008484 0.136676 -0.628635
v 0.008484 0.127364 -0.130521
v -0.124271 -0.207497 0.377900
v 0.139585 -0.209976 0.377903
v 0.035885 -0.218899 -0.670320
v -0.010173 -0.213698 -0.625614
v 0.040646 -0.189597 -0.205740
v -0.024344 -0.195951 -0.202627
v 0.008484 -0.184950 -0.744318
v 0.145324 0.029618 0.264865
v -0.133163 0.015165 0.308460
v 0.008484 -0.302184 -0.391182
v 0.023176 -0.064060 -0.514346
v -0.008173 -0.052849 -0.496576
v 0.128450 0.011055 0.419970
vt 0.570707 0.314770
vt 0.564125 0.232435
vt 0.581768 0.217913
vt 0.663889 0.508914
vt 0.688095 0.672653
vt 0.650107 0.627562
vt 0.502910 0.675621
vt 0.535029 0.738838
vt 0.571065 0.985657
vt 0.602411 0.733976
vt 0.643057 0.831815
vt 0.563028 0.910995
vt 0.613484 0.282519
vt 0.680862 0.373068
vt 0.595497 0.439162
vt 0.556118 0.521117
vt 0.510167 0.518655
vt 0.485560 0.379079
vt 0.560589 0.749935
vt 0.621531 0.530002
vt 0.521864 0.641772
vt 0.605890 0.654213
vt 0.640648 0.721919
vt 0.698631 0.503074
vt 0.711268 0.493888
vt 0.649388 0.254047
vt 0.712210 0.255500
vt 0.481031 0.228462
vt 0.538402 0.341273
vt 0.546323 0.319281
vt 0.540970 0.225066
vt 0.542350 0.398754
vt 0.645290 0.930768
vt 0.699915 0.387032
vt 0.570087 0.691309
vt 0.556442 0.652055
vt 0.528018 0.696328
vt 0.513991 0.639080
vt 0.702178 0.701708
vt 0.553940 0.560930
vt 0.602372 0.153536
vt 0.523471 0.058650
vt 0.621763 0.022676
vt 0.653232 0.193875
vt 0.681100 0.075795
vt 0.704660 0.084009
vt 0.683384 0.024785
vt 0.510021 0.076596
vt 0.540770 0.013634
vt 0.374949 0.226829
vt 0.371172 0.324266
vt 0.359944 0.211430
vt 0.404158 0.756145
vt 0.436164 0.670016
vt 0.368009 0.980051
vt 0.240627 0.497114
vt 0.296332 0.648477
vt 0.251461 0.657188
vt 0.292739 0.831246
vt 0.305582 0.696680
vt 0.376963 0.908773
vt 0.260699 0.361452
vt 0.311651 0.262262
vt 0.337511 0.417964
vt 0.429691 0.518949
vt 0.397834 0.405175
vt 0.453514 0.373474
vt 0.377355 0.746819
vt 0.274670 0.505608
vt 0.319833 0.511696
vt 0.381575 0.644303
vt 0.227807 0.488282
vt 0.289686 0.248441
vt 0.226865 0.249895
vt 0.403910 0.337562
vt 0.458043 0.222856
vt 0.392752 0.313675
vt 0.398105 0.219460
vt 0.378340 0.507390
vt 0.293785 0.925162
vt 0.236897 0.696102
vt 0.239159 0.381427
vt 0.416767 0.636366
vt 0.371340 0.685403
vt 0.409794 0.690720
vt 0.425847 0.631846
vt 0.285843 0.188269
vt 0.384785 0.552473
vt 0.412954 0.080241
vt 0.330990 0.158740
vt 0.317312 0.017070
vt 0.258096 0.076306
vt 0.234414 0.078403
vt 0.255691 0.019179
vt 0.429054 0.070990
vt 0.398305 0.008028
vn 0.695822 -0.659865 -0.283567
vn 0.695822 -0.659865 -0.283567
vn 0.695822 -0.659865 -0.283567
vn -0.662169 -0.703117 -0.259151
vn -0.662169 -0.703117 -0.259151
vn -0.662169 -0.703117 -0.259151
vn -0.352926 -0.905004 0.237510
vn -0.352926 -0.905004 0.237510
vn -0.352926 -0.905004 0.237510
vn -0.755831 0.653595 0.039145
vn -0.755831 0.653595 0.039145
vn -0.755831 0.653595 0.039145
vn 0.725434 0.686610 0.048080
vn 0.725434 0.686610 0.048080
vn 0.725434 0.686610 0.048080
vn 0.372730 -0.897545 0.235552
vn 0.372730 -0.897545 0.235552
vn 0.372730 -0.897545 0.235552
vn -0.946440 0.249182 0.205331
vn -0.946440 0.249182 0.205331
vn -0.946440 0.249182 0.205331
vn 0.963449 0.195813 0.182818
vn 0.963449 0.195813 0.182818
vn 0.963449 0.195813 0.182818
vn -0.917580 0.370662 -0.143723
vn -0.917580 0.370662 -0.143723
vn -0.917580 0.370662 -0.143723
vn 0.914281 0.365865 -0.173876
vn 0.914281 0.365865 -0.173876
vn 0.914281 0.365865 -0.173876
vn 0.858274 -0.479096 -0.183938
vn 0.858274 -0.479096 -0.183938
vn 0.858274 -0.479096 -0.183938
vn 0.991141 -0.059380 0.118798
vn 0.991141 -0.059380 0.118798
vn 0.991141 -0.059380 0.118798
vn -0.826191 -0.541320 -0.156142
vn -0.826191 -0.541320 -0.156142
vn -0.826191 -0.541320 -0.156142
vn -0.994505 -0.018864 0.102974
vn -0.994505 -0.018864 0.102974
vn -0.994505 -0.018864 0.102974
vn 0.960810 0.276154 -0.024138
vn 0.960810 0.276154 -0.024138
vn 0.960810 0.276154 -0.024138
vn 0.969313 -0.245795 -0.004059
vn 0.969313 -0.245795 -0.004059
vn 0.969313 -0.245795 -0.004059
vn -0.974452 0.221817 -0.035219
vn -0.974452 0.221817 -0.035219
vn -0.974452 0.221817 -0.035219
vn -0.998245 -0.055057 0.021823
vn -0.998245 -0.055057 0.021823
vn -0.998245 -0.055057 0.021823
vn -0.367637 -0.927709 0.064801
vn -0.367637 -0.927709 0.064801
vn -0.367637 -0.927709 0.064801
vn 0.378879 -0.923197 0.064485
vn 0.378879 -0.923197 0.064485
vn 0.378879 -0.923197 0.064485
vn -0.804281 0.579262 0.132617
vn -0.804281 0.579262 0.132617
vn -0.804281 0.579262 0.132617
vn 0.778657 0.611666 0.139850
vn 0.778657 0.611666 0.139850
vn 0.778657 0.611666 0.139850
vn 0.084619 -0.978420 0.188504
vn 0.084619 -0.978420 0.188504
vn 0.084619 -0.978420 0.188504
vn 0.745632 0.445195 0.495816
vn 0.745632 0.445195 0.495816
vn 0.745632 0.445195 0.495816
vn -0.069115 -0.977211 0.200702
vn -0.069115 -0.977211 0.200702
vn -0.069115 -0.977211 0.200702
vn -0.731489 0.459001 0.504224
vn -0.731489 0.459001 0.504224
vn -0.731489 0.459001 0.504224
vn 0.369712 0.926784 0.066215
vn 0.369712 0.926784 0.066215
vn 0.369712 0.926784 0.066215
vn 0.981235 0.003737 -0.192781
vn 0.981235 0.003737 -0.192781
vn 0.981235 0.003737 -0.192781
vn -0.371742 0.925836 0.068086
vn -0.371742 0.925836 0.068086
vn -0.371742 0.925836 0.068086
vn -0.978769 0.003972 -0.204927
vn -0.978769 0.003972 -0.204927
vn -0.978769 0.003972 -0.204927
vn -0.949556 -0.313396 0.011251
vn -0.949556 -0.313396 0.011251
vn -0.949556 -0.313396 0.011251
vn 0.956818 -0.290501 0.010429
vn 0.956818 -0.290501 0.010429
vn 0.956818 -0.290501 0.010429
vn 0.487437 0.871157 -0.059088
vn 0.487437 0.871157 -0.059088
vn 0.487437 0.871157 -0.059088
vn -0.598186 0.799520 -0.054229
vn -0.598186 0.799520 -0.054229
vn -0.598186 0.799520 -0.054229
vn 0.962426 -0.105362 -0.250268
vn 0.962426 -0.105362 -0.250268
vn 0.962426 -0.105362 -0.250268
vn 0.833455 -0.535319 -0.137060
vn 0.833455 -0.535319 -0.137060
vn 0.833455 -0.535319 -0.137060
vn -0.967403 -0.070998 -0.243086
vn -0.967403 -0.070998 -0.243086
vn -0.967403 -0.070998 -0.243086
vn -0.860861 -0.489804 -0.137880
vn -0.860861 -0.489804 -0.137880
vn -0.860861 -0.489804 -0.137880
vn 0.951174 -0.125898 -0.281810
vn 0.951174 -0.125898 -0.281810
vn 0.951174 -0.125898 -0.281810
vn 0.802768 0.505470 -0.316327
vn 0.802768 0.505470 -0.316327
vn 0.802768 0.505470 -0.316327
vn -0.959766 -0.091614 -0.265435
vn -0.959766 -0.091614 -0.265435
vn -0.959766 -0.091614 -0.265435
vn -0.673235 0.656093 -0.341022
vn -0.673235 0.656093 -0.341022
vn -0.673235 0.656093 -0.341022
vn 0.858960 0.269639 0.435296
vn 0.858960 0.269639 0.435296
vn 0.858960 0.269639 0.435296
vn 0.504017 0.830451 0.237315
vn 0.504017 0.830451 0.237315
vn 0.504017 0.830451 0.237315
vn -0.863791 0.265325 0.428332
vn -0.863791 0.265325 0.428332
vn -0.863791 0.265325 0.428332
vn -0.483323 0.839327 0.248856
vn -0.483323 0.839327 0.248856
vn -0.483323 0.839327 0.248856
vn 0.628007 0.755707 -0.185778
vn 0.628007 0.755707 -0.185778
vn 0.628007 0.755707 -0.185778
vn 0.910095 0.275917 -0.309188
vn 0.910095 0.275917 -0.309188
vn 0.910095 0.275917 -0.309188
vn -0.645124 0.739471 -0.192346
vn -0.645124 0.739471 -0.192346
vn -0.645124 0.739471 -0.192346
vn -0.914700 0.275681 -0.295506
vn -0.914700 0.275681 -0.295506
vn -0.914700 0.275681 -0.295506
vn 0.947464 0.009138 0.319731
vn 0.947464 0.009138 0.319731
vn 0.947464 0.009138 0.319731
vn 0.786729 -0.608398 0.104446
vn 0.786729 -0.608398 0.104446
vn 0.786729 -0.608398 0.104446
vn 0.417329 0.006663 -0.908731
vn 0.417329 0.006663 -0.908731
vn 0.417329 0.006663 -0.908731
vn 0.508123 -0.672781 0.537752
vn 0.508123 -0.672781 0.537752
vn 0.508123 -0.672781 0.537752
vn 0.413485 -0.908902 0.054105
vn 0.413485 -0.908902 0.054105
vn 0.413485 -0.908902 0.054105
vn 0.869527 -0.491620 -0.047245
vn 0.869527 -0.491620 -0.047245
vn 0.869527 -0.491620 -0.047245
vn -0.877422 -0.478680 -0.031559
vn -0.877422 -0.478680 -0.031559
vn -0.877422 -0.478680 -0.031559
vn -0.403100 -0.911958 0.076435
vn -0.403100 -0.911958 0.076435
vn -0.403100 -0.911958 0.076435
vn -0.709595 -0.700558 0.075458
vn -0.709595 -0.700558 0.075458
vn -0.709595 -0.700558 0.075458
vn -0.885044 -0.425059 -0.189793
vn -0.885044 -0.425059 -0.189793
vn -0.885044 -0.425059 -0.189793
vn 0.929627 -0.315306 -0.190726
vn 0.929627 -0.315306 -0.190726
vn 0.929627 -0.315306 -0.190726
vn 0.981848 -0.173830 0.075884
vn 0.981848 -0.173830 0.075884
vn 0.981848 -0.173830 0.075884
vn -0.948888 -0.221976 -0.224364
vn -0.948888 -0.221976 -0.224364
vn -0.948888 -0.221976 -0.224364
vn -0.985784 -0.126169 0.110958
vn -0.985784 -0.126169 0.110958
vn -0.985784 -0.126169 0.110958
vn 0.721299 0.691072 0.046328
vn 0.721299 0.691072 0.046328
vn 0.721299 0.691072 0.046328
vn 0.725995 0.663590 -0.180495
vn 0.725995 0.663590 -0.180495
vn 0.725995 0.663590 -0.180495
vn -0.715731 0.694817 0.070415
vn -0.715731 0.694817 0.070415
vn -0.715731 0.694817 0.070415
vn -0.731396 0.656131 -0.185880
vn -0.731396 0.656131 -0.185880
vn -0.731396 0.656131 -0.185880
vn -0.922250 0.137950 0.361144
vn -0.922250 0.137950 0.361144
vn -0.922250 0.137950 0.361144
vn -0.503065 -0.675300 0.539347
vn -0.503065 -0.675300 0.539347
vn -0.503065 -0.675300 0.539347
vn -0.763095 0.642299 0.071674
vn -0.763095 0.642299 0.071674
vn -0.763095 0.642299 0.071674
vn 0.720609 0.689065 0.076892
vn 0.720609 0.689065 0.076892
vn 0.720609 0.689065 0.076892
vn 0.800801 -0.485644 -0.350526
vn 0.800801 -0.485644 -0.350526
vn 0.800801 -0.485644 -0.350526
vn -0.887626 0.239247 -0.393549
vn -0.887626 0.239247 -0.393549
vn -0.887626 0.239247 -0.393549
vn -0.919778 0.032724 -0.391072
vn -0.919778 0.032724 -0.391072
vn -0.919778 0.032724 -0.391072
vn 0.783153 0.362508 -0.505232
vn 0.783153 0.362508 -0.505232
vn 0.783153 0.362508 -0.505232
vn -0.795254 -0.455173 -0.400485
vn -0.795254 -0.455173 -0.400485
vn -0.795254 -0.455173 -0.400485
vn 0.963636 -0.051745 -0.262159
vn 0.963636 -0.051745 -0.262159
vn 0.963636 -0.051745 -0.262159
vn 0.440247 0.896655 0.046823
vn 0.440247 0.896655 0.046823
vn 0.440247 0.896655 0.046823
vn 0.546755 0.802751 0.238012
vn 0.546755 0.802751 0.238012
vn 0.546755 0.802751 0.238012
vn -0.441649 0.895967 0.046787
vn -0.441649 0.895967 0.046787
vn -0.441649 0.895967 0.046787
vn -0.558080 0.803859 0.205811
vn -0.558080 0.803859 0.205811
vn -0.558080 0.803859 0.205811
vn 0.398039 -0.659500 -0.637672
vn 0.398039 -0.659500 -0.637672
vn 0.398039 -0.659500 -0.637672
vn 0.834554 -0.539766 -0.110328
vn 0.834554 -0.539766 -0.110328
vn 0.834554 -0.539766 -0.110328
vn -0.486828 -0.523703 -0.699095
vn -0.486828 -0.523703 -0.699095
vn -0.486828 -0.523703 -0.699095
vn -0.858623 -0.512085 -0.023150
vn -0.858623 -0.512085 -0.023150
vn -0.858623 -0.512085 -0.023150
vn 0.940392 0.078815 0.330834
vn 0.940392 0.078815 0.330834
vn 0.940392 0.078815 0.330834
vn 0.954861 0.289245 0.067657
vn 0.954861 0.289245 0.067657
vn 0.954861 0.289245 0.067657
vn -0.957337 0.282645 0.060140
vn -0.957337 0.282645 0.060140
vn -0.957337 0.282645 0.060140
vn -0.934802 0.033298 0.353605
vn -0.934802 0.033298 0.353605
vn -0.934802 0.033298 0.353605
vn 0.990885 0.126894 -0.045230
vn 0.990885 0.126894 -0.045230
vn 0.990885 0.126894 -0.045230
vn 0.873641 -0.440435 0.206804
vn 0.873641 -0.440435 0.206804
vn 0.873641 -0.440435 0.206804
vn -0.995925 0.063645 -0.063898
vn -0.995925 0.063645 -0.063898
vn -0.995925 0.063645 -0.063898
vn -0.867862 -0.451636 0.206981
vn -0.867862 -0.451636 0.206981
vn -0.867862 -0.451636 0.206981
vn -0.536619 0.823559 -0.183821
vn -0.536619 0.823559 -0.183821
vn -0.536619 0.823559 -0.183821
vn -0.823983 -0.520567 -0.223745
vn -0.823983 -0.520567 -0.223745
vn -0.823983 -0.520567 -0.223745
vn 0.353319 0.923983 -0.146361
vn 0.353319 0.923983 -0.146361
vn 0.353319 0.923983 -0.146361
vn 0.818629 -0.527225 -0.227774
vn 0.818629 -0.527225 -0.227774
vn 0.818629 -0.527225 -0.227774
vn -0.965295 0.040091 0.258067
vn -0.965295 0.040091 0.258067
vn -0.965295 0.040091 0.258067
vn 0.970805 -0.016096 0.239329
vn 0.970805 -0.016096 0.239329
vn 0.970805 -0.016096 0.239329
vn 0.350682 -0.936482 0.004880
vn 0.350682 -0.936482 0.004880
vn 0.350682 -0.936482 0.004880
vn 0.880985 -0.401399 -0.250488
vn 0.880985 -0.401399 -0.250488
vn 0.880985 -0.401399 -0.250488
vn -0.869964 -0.398084 -0.291019
vn -0.869964 -0.398084 -0.291019
vn -0.869964 -0.398084 -0.291019
vn -0.364245 -0.931291 -0.004728
vn -0.364245 -0.931291 -0.004728
vn -0.364245 -0.931291 -0.004728
vn -0.610525 0.789704 0.060219
vn -0.610525 0.789704 0.060219
vn -0.610525 0.789704 0.060219
vn 0.990272 0.138740 0.010580
vn 0.990272 0.138740 0.010580
vn 0.990272 0.138740 0.010580
vn -0.949150 -0.297770 -0.102211
vn -0.949150 -0.297770 -0.102211
vn -0.949150 -0.297770 -0.102211
vn 0.944459 -0.306436 -0.118719
vn 0.944459 -0.306436 -0.118719
vn 0.944459 -0.306436 -0.118719
vn 0.956935 0.195624 -0.214491
vn 0.956935 0.195624 -0.214491
vn 0.956935 0.195624 -0.214491
vn 0.983089 -0.154158 -0.098850
vn 0.983089 -0.154158 -0.098850
vn 0.983089 -0.154158 -0.098850
vn -0.953655 0.195110 -0.229073
vn -0.953655 0.195110 -0.229073
vn -0.953655 0.195110 -0.229073
vn -0.980168 -0.108422 -0.165877
vn -0.980168 -0.108422 -0.165877
vn -0.980168 -0.108422 -0.165877
vn 0.693602 0.628830 0.351411
vn 0.693602 0.628830 0.351411
vn 0.693602 0.628830 0.351411
vn 0.864721 0.014391 -0.502046
vn 0.864721 0.014391 -0.502046
vn 0.864721 0.014391 -0.502046
vn -0.668988 0.648833 0.362590
vn -0.668988 0.648833 0.362590
vn -0.668988 0.648833 0.362590
vn -0.894651 0.012801 -0.446583
vn -0.894651 0.012801 -0.446583
vn -0.894651 0.012801 -0.446583
vn 0.972831 0.224954 0.054734
vn 0.972831 0.224954 0.054734
vn 0.972831 0.224954 0.054734
vn 0.975626 0.209708 0.064631
vn 0.975626 0.209708 0.064631
vn 0.975626 0.209708 0.064631
vn -0.540049 -0.817510 -0.200061
vn -0.540049 -0.817510 -0.200061
vn -0.540049 -0.817510 -0.200061
vn 0.552828 -0.809411 -0.198079
vn 0.552828 -0.809411 -0.198079
vn 0.552828 -0.809411 -0.198079
vn -0.661023 0.689616 -0.295767
vn -0.661023 0.689616 -0.295767
vn -0.661023 0.689616 -0.295767
vn 0.606265 0.730879 -0.313464
vn 0.606265 0.730879 -0.313464
vn 0.606265 0.730879 -0.313464
vn 0.407100 0.906124 -0.114929
vn 0.407100 0.906124 -0.114929
vn 0.407100 0.906124 -0.114929
vn -0.407649 0.905881 -0.114899
vn -0.407649 0.905881 -0.114899
vn -0.407649 0.905881 -0.114899
vn -0.680599 -0.552922 0.480689
vn -0.680599 -0.552922 0.480689
vn -0.680599 -0.552922 0.480689
vn -0.287668 -0.917840 0.273525
vn -0.287668 -0.917840 0.273525
vn -0.287668 -0.917840 0.273525
vn 0.251990 -0.905806 0.340611
vn 0.251990 -0.905806 0.340611
vn 0.251990 -0.905806 0.340611
vn 0.599168 -0.619063 0.507699
vn 0.599168 -0.619063 0.507699
vn 0.599168 -0.619063 0.507699
vn 0.793084 -0.562695 0.233222
vn 0.793084 -0.562695 0.233222
vn 0.793084 -0.562695 0.233222
vn 0.941899 0.031275 -0.334438
vn 0.941899 0.031275 -0.334438
vn 0.941899 0.031275 -0.334438
vn -0.781442 -0.576428 0.238914
vn -0.781442 -0.576428 0.238914
vn -0.781442 -0.576428 0.238914
vn -0.988295 0.014204 -0.151892
vn -0.988295 0.014204 -0.151892
vn -0.988295 0.014204 -0.151892
vn 0.815727 -0.461767 -0.348368
vn 0.815727 -0.461767 -0.348368
vn 0.815727 -0.461767 -0.348368
vn 0.897253 -0.159322 -0.411769
vn 0.897253 -0.159322 -0.411769
vn 0.897253 -0.159322 -0.411769
vn -0.827068 -0.467854 -0.311562
vn -0.827068 -0.467854 -0.311562
vn -0.827068 -0.467854 -0.311562
vn -0.907718 -0.183448 -0.377352
vn -0.907718 -0.183448 -0.377352
vn -0.907718 -0.183448 -0.377352
vn 0.278395 -0.829741 -0.483763
vn 0.278395 -0.829741 -0.483763
vn 0.278395 -0.829741 -0.483763
vn -0.882193 -0.406798 -0.237175
vn -0.882193 -0.406798 -0.237175
vn -0.882193 -0.406798 -0.237175
vn 0.992524 -0.070647 0.099521
vn 0.992524 -0.070647 0.099521
vn 0.992524 -0.070647 0.099521
vn 0.768052 0.620633 0.157833
vn 0.768052 0.620633 0.157833
vn 0.768052 0.620633 0.157833
vn -0.749607 0.614560 0.245773
vn -0.749607 0.614560 0.245773
vn -0.749607 0.614560 0.245773
vn -0.990379 -0.058871 0.125237
vn -0.990379 -0.058871 0.125237
vn -0.990379 -0.058871 0.125237
vn -0.985895 -0.007933 -0.167176
vn -0.985895 -0.007933 -0.167176
vn -0.985895 -0.007933 -0.167176
vn 0.986056 -0.007888 -0.166226
vn 0.986056 -0.007888 -0.166226
vn 0.986056 -0.007888 -0.166226
vn 0.984281 0.176271 -0.010912
vn 0.984281 0.176271 -0.010912
vn 0.984281 0.176271 -0.010912
vn 0.992621 0.116240 -0.034511
vn 0.992621 0.116240 -0.034511
vn 0.992621 0.116240 -0.034511
vn -0.986174 0.157973 0.050063
vn -0.986174 0.157973 0.050063
vn -0.986174 0.157973 0.050063
vn -0.998871 0.036659 -0.030213
vn -0.998871 0.036659 -0.030213
vn -0.998871 0.036659 -0.030213
vn 0.964443 0.185568 0.188188
vn 0.964443 0.185568 0.188188
vn 0.964443 0.185568 0.188188
vn 0.968392 0.181586 0.171006
vn 0.968392 0.181586 0.171006
vn 0.968392 0.181586 0.171006
s off
g Fish3:Fish3
usemtl Fish3:initialShadingGroup
f 5/1/1 19/2/2 48/3/3
f 19/50/4 9/51/5 49/52/6
f 32/53/7 12/54/8 6/55/9
f 17/56/10 73/57/11 43/58/12
f 35/4/13 42/5/14 72/6/15
f 12/7/16 30/8/17 6/9/18
f 25/59/19 11/60/20 15/61/21
f 10/10/22 24/11/23 14/12/24
f 27/62/25 23/63/26 58/64/27
f 22/13/28 26/14/29 57/15/30
f 33/16/31 29/17/32 2/18/33
f 28/19/34 10/10/35 14/12/36
f 31/65/37 45/66/38 2/67/39
f 37/68/40 15/61/41 11/60/42
f 20/20/43 35/4/44 72/6/45
f 53/21/46 20/20/47 61/22/48
f 36/69/49 21/70/50 73/57/51
f 21/70/52 51/71/53 73/57/54
f 31/65/55 2/67/56 12/54/57
f 2/18/58 53/21/59 12/7/60
f 43/58/61 11/60/62 25/59/63
f 77/23/64 42/5/65 24/11/66
f 30/8/67 14/12/68 6/9/69
f 24/11/70 6/9/71 14/12/72
f 15/61/73 32/53/74 6/55/75
f 25/59/76 15/61/77 6/55/78
f 16/24/79 7/25/80 42/5/81
f 26/14/82 3/26/83 38/27/84
f 7/72/85 17/56/86 43/58/87
f 3/73/88 27/62/89 38/74/90
f 2/67/91 70/75/92 74/76/93
f 2/18/94 74/28/95 69/29/96
f 62/30/97 69/29/98 18/31/99
f 70/75/100 62/77/101 18/78/102
f 5/1/103 22/13/104 57/15/105
f 33/16/106 2/18/107 44/32/108
f 23/63/109 9/51/110 58/64/111
f 31/65/112 34/79/113 45/66/114
f 22/13/115 5/1/116 48/3/117
f 26/14/118 22/13/119 3/26/120
f 9/51/121 23/63/122 49/52/123
f 23/63/124 27/62/125 3/73/126
f 6/9/127 24/11/128 13/33/129
f 42/5/130 13/33/131 24/11/132
f 25/59/133 6/55/134 13/80/135
f 1/81/136 25/59/137 13/80/138
f 26/14/139 64/34/140 16/24/141
f 57/15/142 26/14/143 35/4/144
f 64/82/145 27/62/146 17/56/147
f 27/62/148 58/64/149 36/69/150
f 10/10/151 28/19/152 46/35/153
f 30/8/154 28/19/155 14/12/156
f 53/21/157 61/22/158 50/36/159
f 28/19/160 66/37/161 41/38/162
f 2/18/163 29/17/164 53/21/165
f 29/17/166 33/16/167 53/21/168
f 34/79/169 31/65/170 54/83/171
f 31/65/172 12/54/173 54/83/174
f 37/68/175 32/53/176 15/61/177
f 21/70/178 54/83/179 51/71/180
f 57/15/181 33/16/182 44/32/183
f 33/16/184 20/20/185 53/21/186
f 34/79/187 58/64/188 45/66/189
f 21/70/190 34/79/191 54/83/192
f 35/4/193 16/24/194 42/5/195
f 26/14/196 16/24/197 35/4/198
f 17/56/199 36/69/200 73/57/201
f 17/56/202 27/62/203 36/69/204
f 37/68/205 11/60/206 4/84/207
f 65/85/208 37/68/209 47/86/210
f 27/62/211 64/82/212 38/74/213
f 64/34/214 26/14/215 38/27/216
f 51/71/217 65/85/218 47/86/219
f 11/60/220 51/71/221 4/84/222
f 49/52/223 23/63/224 55/87/225
f 3/26/226 22/13/227 48/3/228
f 66/37/229 50/36/230 41/38/231
f 61/22/232 46/35/233 50/36/234
f 42/5/235 7/25/236 1/39/237
f 42/5/238 1/39/239 13/33/240
f 7/72/241 43/58/242 1/81/243
f 1/81/244 43/58/245 25/59/246
f 62/30/247 5/1/248 69/29/249
f 5/1/250 57/15/251 69/29/252
f 9/51/253 62/77/254 70/75/255
f 58/64/256 9/51/257 70/75/258
f 28/19/259 41/38/260 46/35/261
f 46/35/262 41/38/263 8/40/264
f 47/86/265 4/84/266 39/88/267
f 37/68/268 4/84/269 47/86/270
f 75/41/271 67/42/272 52/43/273
f 48/3/274 19/2/275 67/42/276
f 68/89/277 76/90/278 52/91/279
f 19/50/280 49/52/281 68/89/282
f 50/36/283 46/35/284 8/40/285
f 41/38/286 50/36/287 8/40/288
f 4/84/289 51/71/290 39/88/291
f 51/71/292 47/86/293 39/88/294
f 55/87/295 60/92/296 76/90/297
f 55/44/298 75/41/299 59/45/300
f 12/7/301 53/21/302 66/37/303
f 53/21/304 50/36/305 66/37/306
f 51/71/307 54/83/308 65/85/309
f 12/54/310 65/85/311 54/83/312
f 23/63/313 3/73/314 55/87/315
f 3/26/316 75/41/317 55/44/318
f 76/90/319 60/92/320 52/91/321
f 59/45/322 75/41/323 52/43/324
f 57/15/325 35/4/326 20/20/327
f 57/15/328 20/20/329 33/16/330
f 36/69/331 58/64/332 21/70/333
f 58/64/334 34/79/335 21/70/336
f 55/44/337 59/45/338 63/46/339
f 59/45/340 52/43/341 56/47/342
f 60/92/343 55/87/344 63/93/345
f 52/91/346 60/92/347 56/94/348
f 61/22/349 77/23/350 46/35/351
f 20/20/352 77/23/353 61/22/354
f 9/51/355 19/50/356 62/77/357
f 19/2/358 5/1/359 62/30/360
f 60/92/361 63/93/362 56/94/363
f 63/46/364 59/45/365 56/47/366
f 16/24/367 64/34/368 7/25/369
f 64/82/370 17/56/371 7/72/372
f 65/85/373 32/53/374 37/68/375
f 12/54/376 32/53/377 65/85/378
f 30/8/379 12/7/380 66/37/381
f 30/8/382 66/37/383 28/19/384
f 19/2/385 40/48/386 67/42/387
f 52/43/388 67/42/389 71/49/390
f 40/95/391 19/50/392 68/89/393
f 68/89/394 52/91/395 71/96/396
f 44/32/397 2/18/398 69/29/399
f 69/29/400 57/15/401 44/32/402
f 45/66/403 70/75/404 2/67/405
f 58/64/406 70/75/407 45/66/408
f 67/42/409 40/48/410 71/49/411
f 40/95/412 68/89/413 71/96/414
f 20/20/415 72/6/416 77/23/417
f 72/6/418 42/5/419 77/23/420
f 43/58/421 73/57/422 11/60/423
f 11/60/424 73/57/425 51/71/426
f 70/75/427 18/78/428 74/76/429
f 18/31/430 69/29/431 74/28/432
f 3/26/433 48/3/434 75/41/435
f 48/3/436 67/42/437 75/41/438
f 49/52/439 55/87/440 76/90/441
f 49/52/442 76/90/443 68/89/444
f 10/10/445 77/23/446 24/11/447
f 77/23/448 10/10/449 46/35/450
